<svg xmlns="http://www.w3.org/2000/svg" viewBox="0 0 32 32">
  <defs>
    <filter id="w" x="-20%" y="-20%" width="140%" height="140%">
      <feTurbulence type="turbulence" baseFrequency="0.035" numOctaves="3" seed="5" result="t"/>
      <feDisplacementMap in="SourceGraphic" in2="t" scale="4" xChannelSelector="R" yChannelSelector="G"/>
    </filter>
    <clipPath id="c">
      <rect width="32" height="32" rx="6" ry="6"/>
    </clipPath>
  </defs>
  <rect width="32" height="32" rx="6" ry="6" fill="#faf8f5"/>
  <g clip-path="url(#c)">
    <g transform="translate(1.10,29.71) scale(0.056751)" filter="url(#w)">
      <path fill="#1a1a1a" d="M268-49.50L268-49.50Q296.50-49.50 310.25-62Q324-74.50 324-92L324-92Q324-102.50 320-111.75Q316-121 301.50-128.75Q287-136.50 255.50-141.50L255.50-141.50Q162.50-157 113.75-182.75Q65-208.50 47.50-243.75Q30-279 30-323L30-323Q30-404.50 86.75-450.75Q143.50-497 254.50-497L254.50-497Q292.50-497 315.25-491Q338-485 351.75-479Q365.50-473 376.50-473L376.50-473Q389-473 395.75-479Q402.50-485 409.75-491Q417-497 430.50-497L430.50-497Q441-497 449.50-490Q458-483 463.50-464L463.50-464L489.50-375.50Q497.50-349.50 494.25-334Q491-318.50 475-312.50L475-312.50Q459-306.50 447.25-312Q435.50-317.50 424-334L424-334Q401.50-367.50 376.50-389.50Q351.50-411.50 324.50-422.50Q297.50-433.50 268-433.50L268-433.50Q234.50-433.50 217.75-421Q201-408.50 201-387.50L201-387.50Q201-374.50 207.75-365Q214.50-355.50 235.50-347.75Q256.50-340 298-332.50L298-332.50Q371-319.50 413.50-295.25Q456-271 474.50-235.50Q493-200 493-152L493-152Q493-102 466-64.50Q439-27 392.25-6.50Q345.50 14 285.50 14L285.50 14Q248.50 14 227.25 7.75Q206 1.50 192.50-4.75Q179-11 166-11L166-11Q153-11 143.50-4.75Q134 1.50 125 7.75Q116 14 104 14L104 14Q93 14 85.50 6Q78-2 74.50-21.50L74.50-21.50L59-107Q54.50-132.50 58.50-145.25Q62.50-158 76.50-164L76.50-164Q92-170.50 104-163.75Q116-157 128.50-139.50L128.50-139.50Q163-90 198.50-69.75Q234-49.50 268-49.50Z"/>
    </g>
  </g>
</svg>
